<svg width="16" height="203" viewBox="0 0 16 203" fill="none" xmlns="http://www.w3.org/2000/svg">
<path d="M0.999998 196.988L0.999998 202.128L15 202.128L15 200.488L9.44 200.488L9.44 197.028C9.44 194.028 7.82 192.308 5.18 192.308C2.58 192.308 0.999997 194.008 0.999998 196.988ZM8.02 196.948L8.02 200.488L2.42 200.488L2.42 197.108C2.42 195.048 3.46 193.948 5.22 193.948C6.98 193.948 8.02 195.008 8.02 196.948ZM11.36 180.579C9.94 180.899 9.02 181.579 8.52 182.699C7.98 181.039 6.68 180.059 4.9 180.059C2.52 180.059 0.999997 181.799 0.999997 184.519L0.999997 189.999L15 189.999L15 188.359L9.02 188.359L9.02 185.379C9.02 183.579 9.8 182.599 11.58 182.199L15 181.439L15 179.779L11.36 180.579ZM7.62 188.359L2.42 188.359L2.42 184.559C2.42 182.819 3.44 181.699 5.02 181.699C6.6 181.699 7.62 182.819 7.62 184.599L7.62 188.359ZM15 167.126L15 165.386L0.999996 171.006L0.999997 172.786L15 178.426L15 176.706L11.58 175.366L11.58 168.466L15 167.126ZM10.2 174.826L2.8 171.906L10.2 169.006L10.2 174.826ZM0.999996 156.517L7.8 160.557L0.999996 164.617L0.999996 166.437L9.26 161.417L15 161.417L15 159.777L9.26 159.777L0.999996 154.697L0.999996 156.517ZM2.42 139.829L0.999995 139.829L0.999995 148.729L15 148.729L15 147.089L9 147.089L9 140.649L7.58 140.649L7.58 147.089L2.42 147.089L2.42 139.829ZM15.2 131.201C15.2 127.221 12.18 124.341 7.99999 124.341C3.8 124.341 0.779995 127.221 0.779995 131.201C0.779995 135.201 3.8 138.081 8 138.081C12.18 138.081 15.2 135.201 15.2 131.201ZM13.78 131.201C13.78 134.261 11.36 136.441 8 136.441C4.61999 136.441 2.19999 134.261 2.19999 131.201C2.19999 128.141 4.61999 125.981 7.99999 125.981C11.36 125.981 13.78 128.141 13.78 131.201ZM11.36 112.317C9.93999 112.637 9.01999 113.317 8.51999 114.437C7.97999 112.777 6.67999 111.797 4.89999 111.797C2.51999 111.797 0.999994 113.537 0.999994 116.257L0.999994 121.737L15 121.737L15 120.097L9.01999 120.097L9.01999 117.117C9.01999 115.317 9.79999 114.337 11.58 113.937L15 113.177L15 111.517L11.36 112.317ZM7.61999 120.097L2.42 120.097L2.41999 116.297C2.41999 114.557 3.43999 113.437 5.01999 113.437C6.59999 113.437 7.61999 114.557 7.61999 116.337L7.61999 120.097ZM15 94.8215L15 93.0815L0.999993 98.7015L0.999993 100.481L15 106.121L15 104.401L11.58 103.061L11.58 96.1615L15 94.8215ZM10.2 102.521L2.79999 99.6015L10.2 96.7015L10.2 102.521ZM0.999992 79.2934L13.26 83.9734L0.999993 88.6734L0.999993 91.0534L15 91.0534L15 89.4734L2.99999 89.4734L15 84.8734L15 83.1134L2.97999 78.4934L15 78.4934L15 76.8934L0.999992 76.8934L0.999992 79.2934ZM15 63.552L15 61.812L0.999992 67.432L0.999992 69.212L15 74.852L15 73.132L11.58 71.792L11.58 64.892L15 63.552ZM10.2 71.252L2.79999 68.332L10.2 65.432L10.2 71.252ZM13.58 58.4238L2.35999 50.0438L0.999991 50.0438L0.999992 60.1838L2.41999 60.1838L2.41999 51.9838L13.62 60.3838L15 60.3838L15 49.9438L13.58 49.9438L13.58 58.4238ZM15.2 41.162C15.2 37.182 12.18 34.302 7.99999 34.302C3.79999 34.302 0.779991 37.182 0.779991 41.162C0.779991 45.162 3.79999 48.042 7.99999 48.042C12.18 48.042 15.2 45.162 15.2 41.162ZM13.78 41.162C13.78 44.222 11.36 46.402 7.99999 46.402C4.61999 46.402 2.19999 44.222 2.19999 41.162C2.19999 38.102 4.61999 35.942 7.99999 35.942C11.36 35.942 13.78 38.102 13.78 41.162ZM0.99999 22.1979L12.76 22.1979L0.99999 29.6179L0.99999 31.6979L15 31.6979L15 30.0979L3.05999 30.0979L15 22.5779L15 20.5979L0.99999 20.5979L0.99999 22.1979ZM15 17.3229L15 15.6829L0.99999 15.6829L0.99999 17.3229L15 17.3229ZM15 2.36055L15 0.620545L0.999989 6.24055L0.999989 8.02055L15 13.6605L15 11.9405L11.58 10.6005L11.58 3.70055L15 2.36055ZM10.2 10.0605L2.79999 7.14055L10.2 4.24055L10.2 10.0605Z" fill="black"/>
</svg>
