<svg width="16" height="144" viewBox="0 0 16 144" fill="none" xmlns="http://www.w3.org/2000/svg">
<path d="M15 132.614L15 130.874L0.999996 136.494L0.999996 138.274L15 143.914L15 142.194L11.58 140.854L11.58 133.954L15 132.614ZM10.2 140.314L2.8 137.394L10.2 134.494L10.2 140.314ZM0.999995 117.086L13.26 121.766L0.999996 126.466L0.999996 128.846L15 128.846L15 127.266L3 127.266L15 122.666L15 120.906L2.98 116.286L15 116.286L15 114.686L0.999995 114.686L0.999995 117.086ZM15 101.345L15 99.6049L0.999995 105.225L0.999995 107.005L15 112.645L15 110.925L11.58 109.585L11.58 102.685L15 101.345ZM10.2 109.045L2.8 106.125L10.2 103.225L10.2 109.045ZM13.58 96.2168L2.35999 87.8368L0.999994 87.8368L0.999995 97.9768L2.42 97.9768L2.42 89.7768L13.62 98.1768L15 98.1768L15 87.7368L13.58 87.7368L13.58 96.2168ZM15.2 78.9549C15.2 74.9749 12.18 72.0949 7.99999 72.0949C3.79999 72.0949 0.779994 74.9749 0.779994 78.9549C0.779994 82.9549 3.79999 85.8349 7.99999 85.8349C12.18 85.8349 15.2 82.9549 15.2 78.9549ZM13.78 78.9549C13.78 82.0149 11.36 84.1949 7.99999 84.1949C4.61999 84.1949 2.19999 82.0149 2.19999 78.9549C2.19999 75.8949 4.61999 73.7349 7.99999 73.7349C11.36 73.7349 13.78 75.8949 13.78 78.9549ZM0.999993 59.9909L12.76 59.9909L0.999993 67.4109L0.999993 69.4909L15 69.4909L15 67.8909L3.05999 67.8909L15 60.3709L15 58.3909L0.999993 58.3909L0.999993 59.9909ZM2.41999 42.1729L0.999992 42.1729L0.999993 51.0729L15 51.0729L15 49.4329L8.99999 49.4329L8.99999 42.9929L7.57999 42.9929L7.57999 49.4329L2.41999 49.4329L2.41999 42.1729ZM15 39.7448L15 38.1048L0.999992 38.1048L0.999992 39.7448L15 39.7448ZM11.36 25.4224C9.93999 25.7424 9.01999 26.4224 8.51999 27.5424C7.97999 25.8824 6.67999 24.9024 4.89999 24.9024C2.51999 24.9024 0.999991 26.6424 0.999992 29.3624L0.999992 34.8424L15 34.8424L15 33.2024L9.01999 33.2024L9.01999 30.2224C9.01999 28.4224 9.79999 27.4424 11.58 27.0424L15 26.2824L15 24.6224L11.36 25.4224ZM7.61999 33.2024L2.41999 33.2024L2.41999 29.4024C2.41999 27.6624 3.43999 26.5424 5.01999 26.5424C6.59999 26.5424 7.61999 27.6624 7.61999 29.4424L7.61999 33.2024ZM13.58 20.3899L8.53999 20.3899L8.53999 13.6099L7.11999 13.6099L7.11999 20.3899L2.41999 20.3899L2.41999 12.8699L0.999991 12.8699L0.999991 22.0299L15 22.0299L15 12.7499L13.58 12.7499L13.58 20.3899ZM15.2 5.83398C15.2 2.61398 13.62 0.473983 11.12 0.473983C5.37999 0.473984 8.69999 8.91398 4.57999 8.91398C3.19999 8.91398 2.17999 7.69398 2.17999 5.77398C2.17999 4.13398 3.09999 2.85398 4.55999 2.35398L4.11999 0.873983C2.05999 1.51398 0.779991 3.21398 0.779991 5.67398C0.779991 8.55398 2.37999 10.494 4.71999 10.494C10.4 10.494 7.07999 2.07398 11.28 2.07398C12.78 2.07398 13.8 3.53398 13.8 5.73398C13.8 7.75398 12.74 9.13398 10.88 9.61398L11.3 11.054C13.68 10.494 15.2 8.61398 15.2 5.83398Z" fill="black"/>
</svg>
